:FULLY-SPECIFIED
:FORCE-ALL-JOINTS-BE-3DOF
:DEGREES
713
root 5.08746 19.0018 6.77256 -39.9348 -49.0685 59.3518
lfemur -38.9827 4.80329 14.0657
ltibia 91.277 0 0
lfoot 1.67892 -1.45219 0
ltoes 28.1748 0 0
rfemur -12.582 -9.34459 6.33945
rtibia 36.6112 0 0
rfoot 25.0029 4.50123 0
rtoes 4.53489 0 0
lowerback 1.94563 0.282199 -1.50249
upperback -2.10431 0.230873 -1.95845
thorax -3.13602 0.119019 -1.11753
lowerneck -6.93059 -5.70769 -0.343622
upperneck 1.78847 -7.82487 4.31343
head 1.94736 -3.81532 1.12815
lclavicle -3.73211e-14 -1.11667e-15 0
lhumerus 0.559194 -19.5124 25.3549
lradius 67.3536 0 0
lwrist 28.3698 0 0
lhand -23.2146 -5.18301 0
lfingers 7.12502 0 0
lthumb 3.23587 24.7722 0
rclavicle -3.73211e-14 -1.11667e-15 0
rhumerus -9.94869 -2.39755 -24.2614
rradius 97.8266 0 0
rwrist -7.86827 0 0
rhand -33.8575 -38.0037 0
rfingers 7.12502 0 0
rthumb -7.04156 -787.851 0
714
root 5.05592 18.9628 7.07458 -46.0883 -47.9272 65.8014
lfemur -38.1596 3.98738 13.0835
ltibia 87.9565 0 0
lfoot 1.24698 -1.87641 0
ltoes 27.3985 0 0
rfemur -13.2692 -10.365 5.88028
rtibia 40.7596 0 0
rfoot 25.1091 4.69123 0
rtoes 5.53615 0 0
lowerback 1.90313 0.64692 -1.37293
upperback -2.11701 0.724918 -1.90953
thorax -3.11263 0.363539 -1.15722
lowerneck -6.97117 -5.81062 -0.377771
upperneck 1.61114 -7.95454 4.25338
head 1.89804 -3.88536 1.11127
lclavicle -3.82614e-14 -3.04514e-15 0
lhumerus -2.3179 -19.2456 26.8246
lradius 66.4369 0 0
lwrist 28.0468 0 0
lhand -23.2125 -5.1124 0
lfingers 7.12502 0 0
lthumb 3.23791 24.8427 0
rclavicle -3.82614e-14 -3.04514e-15 0
rhumerus -7.63352 -1.46522 -25.4787
rradius 97.5312 0 0
rwrist -7.83002 0 0
rhand -33.6567 -37.6207 0
rfingers 7.12502 0 0
rthumb -6.84771 -787.473 0
715
root 5.02366 18.9229 7.38347 -52.3819 -46.7598 72.3978
lfemur -37.3178 3.15289 12.079
ltibia 84.5603 0 0
lfoot 0.805197 -2.3103 0
ltoes 26.6046 0 0
rfemur -13.9719 -11.4086 5.41065
rtibia 45.0025 0 0
rfoot 25.2177 4.88556 0
rtoes 6.5602 0 0
lowerback 1.85965 1.01995 -1.24041
upperback -2.13001 1.23022 -1.8595
thorax -3.08871 0.613627 -1.19782
lowerneck -7.01268 -5.91589 -0.412698
upperneck 1.42977 -8.08717 4.19197
head 1.8476 -3.95699 1.09401
lclavicle -3.92231e-14 -5.01753e-15 0
lhumerus -5.26053 -18.9728 28.3279
lradius 65.4994 0 0
lwrist 27.7164 0 0
lhand -23.2103 -5.04019 0
lfingers 7.12502 0 0
lthumb 3.24 24.9149 0
rclavicle -3.92231e-14 -5.01753e-15 0
rhumerus -5.26563 -0.511657 -26.7238
rradius 97.2292 0 0
rwrist -7.79089 0 0
rhand -33.4514 -37.2291 0
rfingers 7.12502 0 0
rthumb -6.64943 -787.087 0
716
root 4.99084 18.8823 7.69771 -58.7845 -45.5723 79.1085
lfemur -36.4613 2.30394 11.057
ltibia 81.1053 0 0
lfoot 0.355767 -2.75171 0
ltoes 25.7969 0 0
rfemur -14.6869 -12.4703 4.93289
rtibia 49.3189 0 0
rfoot 25.3282 5.08326 0
rtoes 7.602 0 0
lowerback 1.81543 1.39943 -1.10561
upperback -2.14323 1.74426 -1.8086
thorax -3.06437 0.868047 -1.23912
lowerneck -7.0549 -6.02298 -0.44823
upperneck 1.24526 -8.2221 4.1295
head 1.79629 -4.02987 1.07645
lclavicle -4.02015e-14 -7.02408e-15 0
lhumerus -8.25412 -18.6952 29.8572
lradius 64.5456 0 0
lwrist 27.3803 0 0
lhand -23.2081 -4.96673 0
lfingers 7.12502 0 0
lthumb 3.24213 24.9883 0
rclavicle -4.02015e-14 -7.02408e-15 0
rhumerus -2.85673 0.45842 -27.9904
rradius 96.9219 0 0
rwrist -7.75109 0 0
rhand -33.2424 -36.8306 0
rfingers 7.12502 0 0
rthumb -6.44772 -786.694 0
